<svg width="354" height="324" viewBox="0 0 354 324" fill="none" xmlns="http://www.w3.org/2000/svg">
<path d="M0.643496 308.669L5.00732 120.479C5.12296 115.492 8.31201 111.097 13.0172 109.439L305.04 6.57427C312.189 4.05592 319.853 8.71467 320.909 16.2206L351.694 235.013C352.568 241.219 348.519 247.051 342.4 248.403L15.2283 320.665C7.62654 322.344 0.463022 316.452 0.643496 308.669Z"/>
<g style="mix-blend-mode:multiply" opacity="0.6">
<path d="M0.77167 307.888L5.13549 119.699C5.25114 114.711 8.44018 110.316 13.1454 108.659L305.168 5.7935C312.317 3.27516 319.982 7.93391 321.038 15.4399L351.823 234.233C352.696 240.438 348.647 246.271 342.528 247.622L15.3565 319.884C7.75471 321.563 0.591196 315.671 0.77167 307.888Z" fill="url(#paint0_radial_9109_185)"/>
</g>
<defs>
<radialGradient id="paint0_radial_9109_185" cx="0" cy="0" r="1" gradientUnits="userSpaceOnUse" gradientTransform="translate(43.8107 141.7) rotate(53.7473) scale(225.05 246.483)">
<stop stop-color="#03385E"/>
<stop offset="1" stop-color="#00D3D9" stop-opacity="0"/>
</radialGradient>
</defs>
</svg>
